<svg width="800" height="800" viewBox="0 0 800 800" fill="none" xmlns="http://www.w3.org/2000/svg">
    <rect width="800" height="800" rx="400" fill="#1A1A1A"/>
    <path d="M225.456 320H135.957C135.957 320 166.882 408.5 220.627 450.578C262.531 483.399 304.57 506.981 401.579 506.981C401.579 506.981 360.767 491.304 307.405 447.626C250.671 401.185 225.456 320 225.456 320Z"
          fill="#05BF6B"/>
    <path d="M565.019 505.887H668.198C668.198 505.887 621.677 407.272 560.804 365.88C524.763 341.364 481 318.887 368.145 318.887C368.145 318.887 400.277 326.373 436.682 345.136C518.44 387.271 565.019 505.887 565.019 505.887Z"
          fill="white"/>
    <path d="M428.594 507H530.547C530.547 507 494.781 423.381 438.181 381.988C404.669 357.473 354.75 320 249.846 320C249.846 320 289.029 335.144 321.506 357.278C388.376 402.842 428.613 507 428.613 507H428.594Z"
          fill="white"/>
</svg>
